<?xml version="1.0" encoding="UTF-8"?>
<svg id="a" xmlns="http://www.w3.org/2000/svg" xmlns:xlink="http://www.w3.org/1999/xlink" viewBox="0 0 1357.02997 2048">
    <defs>
        <style>.p{fill:url(#l);}.q{fill:url(#c);}.r{fill:url(#m);}.s{fill:url(#f);}.t{fill:url(#g);}.u{fill:url(#b);}.v{fill:url(#i);}.w{fill:url(#h);}.x{fill:url(#e);}.y{fill:url(#n);}.a{fill:url(#j);}.aa{fill:url(#o);}.ab{fill:url(#k);}</style>
        <linearGradient id="b" x1="678.51984" y1="1667.77881" x2="678.51984" y2="2048" gradientTransform="matrix(1, 0, 0, 1, 0, 0)" gradientUnits="userSpaceOnUse">
            <stop offset="0" stop-color="#ff7300" />
            <stop offset=".09536" stop-color="#f97c00" />
            <stop offset=".25342" stop-color="#ea9502" />
            <stop offset=".29736" stop-color="#e59e03" />
            <stop offset=".99031" stop-color="#e5c500" />
        </linearGradient>
        <linearGradient id="c" x1="676.68054" y1="1034.24616" x2="676.68054" y2="1524.82166" xlink:href="#b" />
        <linearGradient id="a" x1="676.68054" y1="1034.24616" x2="676.68054" y2="1524.82166" xlink:href="#b" />
        <linearGradient id="e" x1="606.94807" y1="933.6879" x2="606.94807" y2="990.43949" xlink:href="#b" />
        <linearGradient id="f" x1="735.26658" y1="977.49456" x2="735.26658" y2="1034.24616" xlink:href="#b" />
        <linearGradient id="g" x1="706.89078" y1="875.6465" x2="706.89078" y2="910.90127" xlink:href="#b" />
        <linearGradient id="h" x1="649.2263" y1="824.0782" x2="649.2263" y2="851.88305" xlink:href="#b" />
        <linearGradient id="i" x1="706.89078" y1="769.16458" x2="706.89078" y2="817.6051" xlink:href="#b" />
        <linearGradient id="j" x1="596.02769" y1="524.62718" x2="596.02769" y2="616.2896" xlink:href="#b" />
        <linearGradient id="k" x1="472.63597" y1="616.2896" x2="472.63597" y2="660.06091" xlink:href="#b" />
        <linearGradient id="l" x1="561.30159" y1="776.05493" x2="561.30159" y2="798.26515" xlink:href="#b" />
        <linearGradient id="m" x1="859.2347" y1="542.08259" x2="859.2347" y2="598.83418" xlink:href="#b" />
        <linearGradient id="n" x1="737.73716" y1="618.46612" x2="737.73716" y2="701.6557" xlink:href="#b" />
        <linearGradient id="o" x1="678.51498" y1="0" x2="678.51498" y2="1552.10986" xlink:href="#b" />
    </defs>
    <path class="u" d="M357.96722,1809.17346c0,46.2804,37.52032,83.79089,83.80066,83.79089h51.22028c15.82617,88.14148,92.83582,155.03564,185.52924,155.03564,92.68848,0,169.703-66.89417,185.52917-155.03564h51.2251c46.27563,0,83.80078-37.52026,83.80078-83.79089v-141.39465H357.96722v141.39465Z" />
    <path class="q" d="M805.34015,1524.82166h-257.31921v-480.61145c13.66187-4.95532,34.88263-10.82007,60.58954-9.85986,65.04388,2.42957,94.85895,46.16406,145.60516,37.37573,12.67065-2.19434,30.87683-8.39575,51.12451-27.51587v480.61145Z" />
    <g id="d">
        <circle class="x" cx="606.94807" cy="962.06369" r="28.3758" />
        <circle class="s" cx="735.26658" cy="1005.87036" r="28.3758" />
        <circle class="t" cx="706.89078" cy="893.27389" r="17.62739" />
        <circle class="w" cx="649.2263" cy="837.98062" r="13.90243" />
        <circle class="v" cx="706.89078" cy="793.38484" r="24.22026" />
        <circle class="a" cx="596.02769" cy="570.45839" r="45.83121" />
        <circle class="ab" cx="472.63597" cy="638.17525" r="21.88566" />
        <circle class="p" cx="561.30159" cy="787.16004" r="11.10511" />
        <circle class="r" cx="859.2347" cy="570.45839" r="28.3758" />
        <circle class="y" cx="737.73716" cy="660.06091" r="41.59479" />
    </g>
    <path class="aa" d="M678.5174,0C304.38019,0,0,289.17761,0,644.63086c0,247.81256,95.98828,388.52466,188.87317,524.67004,76.3418,111.85376,155.19281,227.49829,162.04279,382.80896h201.21899c-16.57001,0-30-13.43005-30-30V701.68982h-95.08002c-9.02997,0-16.35999-7.33002-16.35999-16.35999v-97.34998c0-9.03003,7.33002-16.36005,16.35999-16.36005h502.92999c9.03003,0,16.3501,7.33002,16.3501,16.36005v97.34998c0,9.02997-7.32007,16.35999-16.3501,16.35999h-94.21997v820.42004c0,16.56995-13.42993,30-30,30h200.77612c5.49109-50.53674,15.76208-126.4884,54.90857-207.57935,30.06946-62.28821,68.81116-119.16772,106.94275-175.12646,92.74243-136.08167,188.63757-276.79858,188.63757-524.77319C1357.02997,289.17273,1052.65448,0,678.5174,0ZM117.68054,479.74219c-56.17773,166.63007-31.79132,309.14355-18.11591,368.57928-11.0824-5.4585-22.16473-10.91693-33.24713-16.37543-14.10181-55.82086-42.81268-200.81238,16.22577-369.44971,54.24957-154.9585,153.45264-246.65338,198.39844-283.59491,11.27435,2.15338,22.54865,4.30682,33.823,6.46021-46.08356,40.15717-143.7478,136.17847-197.08417,294.38055Z" />
</svg>