<?xml version="1.0" encoding="UTF-8"?><svg id="a" xmlns="http://www.w3.org/2000/svg" viewBox="0 0 1822.64081 946.20473"><defs><style>.e{stroke-width:6px;}.e,.f{fill:#fff;stroke:#000;stroke-miterlimit:10;}.g{fill:#0085c7;}.h{fill:#009f3d;}.f{stroke-width:7px;}.i{fill:#f4c300;}.j{fill:#df0024;}</style></defs><g id="b"><path d="M435.62447,388.87201c.00459-7.40493,.01219-15.57497,.0242-24.29567h-16.93049v-25.30458c0-6.70924-5.43728-12.14775-12.14792-12.14775h-50.2804v-25.11043h50.2804c6.71065,0,12.14792-5.43869,12.14792-12.14792V95.69088c0-29.35666-23.88193-53.23851-53.23851-53.23851h-100.33344V12.14784c0-6.70924-5.43719-12.14784-12.14792-12.14784s-12.14784,5.4386-12.14784,12.14784v30.30312h-100.33495c-29.35657,0-53.23842,23.88326-53.23842,53.23842v194.17627c0,6.70924,5.43719,12.14792,12.14784,12.14792h50.28182v25.11043h-50.28182c-6.71065,0-12.14784,5.43851-12.14784,12.14775v25.30458h-17.45968c.02138,8.0985,.03763,16.197,.05044,24.29567h17.40925v25.6489h-17.37303c.00689,8.09815,.01263,16.19629,.01669,24.29426h17.35492v98.70392c0,6.70924,5.4371,12.14792,12.14784,12.14792h21.56334v109.57229h-15.32014c-6.71065,0-12.14784,5.43869-12.14784,12.14792v57.43394c0,6.70924,5.43719,12.14792,12.14784,12.14792h102.3813c6.71074,0,12.14784-5.43869,12.14784-12.14792v-57.43394c0-6.70924-5.4371-12.14792-12.14784-12.14792h-15.31873v-109.57229h120.5365v109.57229h-15.32014c-6.71065,0-12.14784,5.43869-12.14784,12.14792v57.43394c0,6.70924,5.4371,12.14792,12.14784,12.14792h102.38139c6.71065,0,12.14792-5.43869,12.14792-12.14792v-57.43394c0-6.70924-5.43728-12.14792-12.14792-12.14792h-15.31873v-109.57229h21.56334c6.71065,0,12.14792-5.43869,12.14792-12.14792v-98.70392h16.88845c.00989-5.21062,.01625-8.89983,.01555-10.70054-.00106-2.15368-.00389-6.876-.00495-13.59372h-16.90046v-25.6489h16.90629ZM111.57136,277.71914V95.69088c0-15.95983,12.98433-28.94416,28.94416-28.94416h224.96415c15.95983,0,28.94416,12.98433,28.94416,28.94416v182.02826H111.57136Zm220.42423,24.29302v25.11026H174.00101v-25.11026h157.99457Zm-136.09398,381.52441v33.13809H117.81465v-33.13809h78.08695Zm-50.61756-24.29585v-109.57229h23.1525v109.57229h-23.1525Zm242.89649,24.29585v33.13809h-78.08695v-33.13809h78.08695Zm-50.61747-24.29585v-109.57229h23.15241v109.57229h-23.15241Zm56.85926-133.86955H111.57136v-173.95149H394.42232v173.95149Z"/><path d="M178.08502,122.64222c-30.10626,0-54.59882,24.49254-54.59882,54.59736s24.49254,54.59736,54.59882,54.59736c30.10482,.00146,54.59736-24.4911,54.59736-54.59736,.00146-30.10482-24.49108-54.59736-54.59736-54.59736Zm0,84.90044c-16.70801,0-30.30454-13.59217-30.30454-30.30308,0-16.70801,13.59507-30.30308,30.30454-30.30308,16.70801,0,30.30308,13.59362,30.30308,30.30308,.00002,16.70947-13.59361,30.30308-30.30308,30.30308Z"/><path d="M327.91304,122.64222c-30.10628,0-54.5988,24.49254-54.5988,54.59736s24.49256,54.59882,54.5988,54.59882,54.59738-24.49254,54.59738-54.59736-24.49261-54.59882-54.59738-54.59882Zm0,84.90044c-16.70803,0-30.30454-13.59363-30.30454-30.30308,0-16.70801,13.59363-30.30308,30.30454-30.30308,16.70803,0,30.30308,13.59362,30.30308,30.30308-.00146,16.70947-13.59509,30.30308-30.30308,30.30308Z"/><rect y="358.37861" width="76.54531" height="80.9699" rx="6.87898" ry="6.87898"/><rect x="427.68442" y="358.37861" width="76.54531" height="80.9699" rx="6.87898" ry="6.87898"/></g><g id="c"><path class="g" d="M370.35317,459.03167c.71488-2.01156,3.10377-3.70752,4.22894-3.70752h14.79717c13.89019,0,25.19251-11.2982,25.19251-25.19251v-24.14283c0-13.89293-11.30233-25.19251-25.19251-25.19251h-14.79306c-1.12517,0-3.51406-1.69597-4.22756-3.70753-1.48602-4.18641-3.22864-8.35496-5.18121-12.3822-.9111-1.88532-.4281-4.7284,.36087-5.51738l10.51883-10.51746c9.82041-9.8259,9.82041-25.80586,0-35.62627l-17.06806-17.06806c-4.75721-4.75721-11.08552-7.37663-17.81451-7.37663-6.73035,0-13.05866,2.62491-17.81587,7.38075l-10.51335,10.51472c-.32794,.32794-1.45311,.8521-3.06948,.8521-.91933,0-1.80985-.17563-2.4479-.48711-4.0341-1.95256-8.19991-3.69518-12.3822-5.17709-2.01567-.71351-3.71164-3.1079-3.71164-4.22894v-14.7958c0-13.8943-11.30233-25.19251-25.19251-25.19251h-24.14283c-13.89019,0-25.19251,11.29821-25.19251,25.19251v14.7958c0,1.12516-1.69597,3.50994-3.70753,4.22482-4.20287,1.49014-8.3728,3.23688-12.39043,5.18121-.63393,.30599-1.52856,.483-2.4479,.483-1.61638,0-2.73743-.52004-3.06399-.84798l-10.51883-10.51472c-4.75721-4.75721-11.08415-7.37663-17.81451-7.37663s-13.05455,2.61942-17.81039,7.37663l-17.0708,17.06807c-9.82041,9.8259-9.82041,25.80997,0,35.63039l10.51335,10.51335c.78898,.78898,1.27609,3.63206,.36499,5.51326-1.95256,4.03136-3.69518,8.19991-5.18121,12.38632-.71351,2.01156-3.1079,3.71164-4.22894,3.71164h-14.79579c-13.88881-.00001-25.19251,11.2982-25.19251,25.1925v24.14283c0,13.89018,11.29958,25.19252,25.1884,25.19252h14.79717c1.12516,0,3.51405,1.69596,4.22894,3.70752,1.48603,4.19052,3.22865,8.35497,5.18121,12.3822,.9111,1.88531,.42811,4.72704-.36087,5.51737l-10.51883,10.51883c-4.75721,4.75721-7.37663,11.08552-7.37663,17.81451,0,6.73035,2.61942,13.05456,7.38075,17.81587l17.06807,17.06395c4.75721,4.75721,11.08415,7.37664,17.81451,7.37664s13.05455-2.61941,17.8104-7.37664l10.51883-10.51745c.32657-.32794,1.45309-.8521,3.06948-.8521,.91933,0,1.80985,.17564,2.4479,.48574,4.03547,1.95256,8.20128,3.69517,12.3822,5.17708,2.01568,.71352,3.71164,3.10652,3.71164,4.22756v14.79717c0,13.89293,11.3037,25.19251,25.19251,25.19251h24.14283c13.89019,0,25.19251-11.2982,25.19251-25.19251v-14.79306c0-1.12517,1.69596-3.50994,3.70752-4.22345,4.1864-1.48602,8.35085-3.22864,12.3822-5.18121,.63804-.31148,1.53269-.4871,2.45202-.4871,1.61637,0,2.73741,.52416,3.06948,.8521l10.51883,10.51745c4.75721,4.75721,11.08416,7.37664,17.81451,7.37664s13.05456-2.61941,17.81039-7.37664l17.06806-17.0667c9.82041-9.8259,9.82041-25.80587,0-35.62628l-10.51335-10.51335c-.79036-.78898-1.27746-3.63617-.36636-5.51737,1.95392-4.05328,3.69517-8.21773,5.17708-12.4Zm-67.31312-40.97215c0,27.05725-22.01326,49.07462-49.07051,49.07462-27.06137,0-49.07463-22.01326-49.07463-49.07463s22.01326-49.07463,49.07463-49.07463c27.05587,.00001,49.07051,22.01464,49.07051,49.07464Z"/><path class="i" d="M750.18532,578.64157h-21.53101c-5.82599,0-12.61902-5.272-14.83398-11.51501-2.05298-5.78601-4.46503-11.54501-7.15997-17.121-2.87097-5.92999-1.81403-14.418,2.30499-18.53699l15.32599-15.328c10.73798-10.737,10.73798-28.20999,0-38.948l-24.87701-24.877c-5.203-5.202-12.117-8.06599-19.47501-8.06599-7.35501,0-14.271,2.864-19.47299,8.06599l-15.328,15.328c-2.461,2.46001-6.55899,3.929-10.957,3.929-2.754,0-5.375-.563-7.57401-1.62801-5.578-2.69901-11.34601-5.11301-17.14499-7.17599-6.23999-2.215-11.51199-9.008-11.51199-14.832v-21.533c0-15.18401-12.354-27.54001-27.54102-27.54001h-35.189c-15.18799,0-27.54099,12.356-27.54099,27.54001v21.533c0,5.826-5.271,12.62-11.51199,14.832-5.79099,2.05701-11.55701,4.465-17.129,7.158-2.16299,1.04601-4.84698,1.62199-7.55801,1.62199-4.41599,0-8.52499-1.472-10.992-3.938l-15.30301-15.297c-5.202-5.202-12.118-8.06599-19.47701-8.06599-7.356,0-14.272,2.864-19.474,8.063l-24.90199,24.88699c-5.205,5.19901-8.069,12.114-8.07201,19.47101,0,7.356,2.864,14.272,8.06599,19.474l15.328,15.328c4.12199,4.12201,5.181,12.616,2.311,18.54999-2.69,5.56601-5.09801,11.32199-7.151,17.11099-2.215,6.23901-9.005,11.51199-14.832,11.51199h-21.53c-15.187,0-27.54001,12.35599-27.54001,27.54001v35.19c0,15.18399,12.353,27.54001,27.54001,27.54001h21.53c5.827,0,12.62,5.26901,14.83501,11.509,2.05,5.77301,4.45799,11.53201,7.157,17.11099,2.868,5.92999,1.806,14.42499-2.319,18.54999l-15.328,15.327c-10.737,10.737-10.737,28.20999,0,38.94702l24.912,24.91498c5.202,5.20203,12.118,8.06598,19.474,8.06598s14.272-2.86401,19.47401-8.06598l15.328-15.32703c2.466-2.46698,6.573-3.93799,10.98499-3.93799,2.75101,0,5.36401,.56,7.55801,1.62201,5.57599,2.69501,11.33301,5.104,17.11499,7.15698,6.23801,2.21503,11.51199,9.008,11.51199,14.83502v21.53302c0,15.18402,12.354,27.539,27.539,27.539h35.19101c15.186,0,27.539-12.35498,27.539-27.539v-21.53302c0-5.82703,5.27301-12.62,11.51199-14.83197,5.793-2.05701,11.55899-4.46503,17.13101-7.15698,2.16199-1.047,4.84601-1.62201,7.55701-1.62201,4.41599,0,8.52301,1.47198,10.98999,3.93799l15.32599,15.32703c5.203,5.20203,12.11499,8.06598,19.47101,8.06598,7.35901,0,14.27499-2.867,19.47702-8.07202l24.88898-24.90198c10.72998-10.73999,10.72998-28.21301-.00403-38.95099l-15.31403-15.32101c-4.11902-4.11801-5.17603-12.61301-2.30902-18.547,2.69299-5.569,5.09802-11.33099,7.15399-17.12,2.21301-6.23901,9.00403-11.509,14.83002-11.509h21.52899c15.18799,0,27.54102-12.35599,27.54102-27.54001v-35.19c-.00995-15.194-12.36597-27.548-27.54895-27.548Zm-116.66299,45.13501c0,44.50201-36.207,80.70801-80.70901,80.70801s-80.707-36.20599-80.707-80.70801,36.207-80.707,80.707-80.707,80.70901,36.203,80.70901,80.707Z"/><path class="j" d="M1321.555,180.79572h-12.75868c-3.45232,0-7.47768-3.12404-8.79021-6.82348-1.21654-3.42863-2.64585-6.84126-4.2428-10.14543-1.70126-3.51395-1.07494-8.54371,1.36588-10.98451l9.08176-9.08295c6.36303-6.36245,6.36303-16.71646,0-23.07951l-14.74143-14.74142c-3.08316-3.08256-7.1802-4.77969-11.54035-4.77969-4.35838,0-8.4566,1.69713-11.53916,4.77969l-9.08295,9.08295c-1.45832,1.45773-3.88668,2.32822-6.49282,2.32822-1.63194,0-3.18508-.33362-4.48815-.96471-3.30537-1.59936-6.72333-3.02983-10.15965-4.2523-3.69765-1.31255-6.82169-5.33789-6.82169-8.78903v-12.75987c0-8.99762-7.32064-16.31945-16.32005-16.31945h-20.85203c-8.99998,0-16.32003,7.32183-16.32003,16.31945v12.75987c0,3.45233-3.12345,7.47826-6.82169,8.78903-3.43158,1.21893-6.84836,2.64583-10.15017,4.24164-1.28173,.61983-2.87219,.96115-4.47867,.96115-2.61679,0-5.05168-.87227-6.51356-2.33355l-9.06814-9.06458c-3.08256-3.08256-7.18079-4.77969-11.54154-4.77969-4.35896,0-8.4572,1.69713-11.53975,4.77791l-14.75623,14.74735c-3.08434,3.08079-4.78147,7.17842-4.78325,11.53798,0,4.35896,1.69713,8.4572,4.77969,11.53975l9.08295,9.08295c2.44258,2.44259,3.07012,7.47589,1.36944,10.99221-1.59402,3.29826-3.02094,6.7091-4.23749,10.1395-1.31255,3.69707-5.33612,6.82169-8.78903,6.82169h-12.75808c-8.9994,0-16.31945,7.32182-16.31945,16.31945v20.85263c0,8.99761,7.32005,16.31945,16.31945,16.31945h12.75808c3.45292,0,7.47826,3.12227,8.79082,6.81992,1.21478,3.42093,2.64168,6.83355,4.24104,10.1395,1.6995,3.51395,1.07019,8.54785-1.37418,10.99221l-9.08295,9.08236c-6.36245,6.36245-6.36245,16.71646,0,23.07893l14.76217,14.76393c3.08256,3.08258,7.18079,4.77968,11.53975,4.77968s8.4572-1.69714,11.53976-4.77968l9.08295-9.08237c1.46129-1.46186,3.89498-2.33354,6.5094-2.33354,1.63017,0,3.17857,.33184,4.47867,.96116,3.30418,1.59699,6.71563,3.02449,10.14187,4.24103,3.69647,1.31256,6.82169,5.33789,6.82169,8.79083v12.75987c0,8.99763,7.32064,16.31885,16.31885,16.31885h20.85322c8.99881,0,16.31885-7.32122,16.31885-16.31885v-12.75987c0-3.45294,3.12464-7.47826,6.82169-8.78902,3.43277-1.21893,6.84954-2.64585,10.15137-4.24103,1.28113-.62042,2.87161-.96116,4.47807-.96116,2.61679,0,5.0505,.87226,6.51237,2.33354l9.08176,9.08237c3.08316,3.08258,7.17901,4.77968,11.53798,4.77968,4.36075,0,8.45897-1.69891,11.54155-4.78326l14.74852-14.75623c6.35829-6.36422,6.35829-16.71825-.00239-23.08128l-9.07467-9.07881c-2.44082-2.44022-3.06717-7.47412-1.36826-10.99044,1.59579-3.30004,3.02095-6.71443,4.23926-10.14484,1.31137-3.69707,5.33554-6.81992,8.78786-6.81992h12.75749c8.99998,0,16.32005-7.32182,16.32005-16.31945v-20.85263c-.0059-9.00355-7.32773-16.32419-16.32475-16.32419Zm-69.13127,26.74576c0,26.37067-21.45527,47.82534-47.82594,47.82534s-47.82474-21.45467-47.82474-47.82534,21.45527-47.82474,47.82474-47.82474,47.82594,21.4529,47.82594,47.82474Z"/><path class="h" d="M963.10976,786.17936h-12.75868c-3.45232,0-7.47768-3.12404-8.79021-6.82348-1.21654-3.42863-2.64585-6.84126-4.2428-10.14543-1.70126-3.51395-1.07494-8.54371,1.36588-10.98451l9.08176-9.08295c6.36303-6.36245,6.36303-16.71646,0-23.07951l-14.74143-14.74142c-3.08316-3.08256-7.1802-4.77969-11.54035-4.77969-4.35838,0-8.4566,1.69713-11.53916,4.77969l-9.08295,9.08295c-1.45832,1.45773-3.88668,2.32822-6.49282,2.32822-1.63194,0-3.18508-.33362-4.48815-.96471-3.30537-1.59936-6.72333-3.02983-10.15965-4.2523-3.69765-1.31255-6.82169-5.33789-6.82169-8.78903v-12.75987c0-8.99762-7.32064-16.31945-16.32005-16.31945h-20.85203c-8.99998,0-16.32003,7.32183-16.32003,16.31945v12.75987c0,3.45233-3.12345,7.47826-6.82169,8.78903-3.43158,1.21893-6.84836,2.64583-10.15017,4.24164-1.28173,.61983-2.87219,.96115-4.47867,.96115-2.61679,0-5.05168-.87227-6.51356-2.33355l-9.06814-9.06458c-3.08256-3.08256-7.18079-4.77969-11.54154-4.77969-4.35896,0-8.4572,1.69713-11.53975,4.77791l-14.75623,14.74735c-3.08434,3.08079-4.78147,7.17842-4.78325,11.53798,0,4.35896,1.69713,8.4572,4.77969,11.53975l9.08295,9.08295c2.44258,2.44259,3.07012,7.47589,1.36944,10.99221-1.59402,3.29826-3.02094,6.7091-4.23749,10.1395-1.31255,3.69707-5.33612,6.82169-8.78903,6.82169h-12.75808c-8.9994,0-16.31945,7.32182-16.31945,16.31945v20.85263c0,8.99761,7.32005,16.31945,16.31945,16.31945h12.75808c3.45292,0,7.47826,3.12227,8.79082,6.81992,1.21478,3.42093,2.64168,6.83355,4.24104,10.1395,1.6995,3.51395,1.07019,8.54785-1.37418,10.99221l-9.08295,9.08236c-6.36245,6.36245-6.36245,16.71646,0,23.07893l14.76217,14.76393c3.08256,3.08258,7.18079,4.77968,11.53975,4.77968s8.4572-1.69714,11.53976-4.77968l9.08295-9.08237c1.46129-1.46186,3.89498-2.33354,6.5094-2.33354,1.63017,0,3.17857,.33184,4.47867,.96116,3.30418,1.59699,6.71563,3.02449,10.14187,4.24103,3.69647,1.31256,6.82169,5.33789,6.82169,8.79083v12.75987c0,8.99763,7.32064,16.31885,16.31885,16.31885h20.85322c8.99881,0,16.31885-7.32122,16.31885-16.31885v-12.75987c0-3.45294,3.12464-7.47826,6.82169-8.78902,3.43277-1.21893,6.84954-2.64585,10.15137-4.24103,1.28113-.62042,2.87161-.96116,4.47807-.96116,2.61679,0,5.0505,.87226,6.51237,2.33354l9.08176,9.08237c3.08316,3.08258,7.17901,4.77968,11.53798,4.77968,4.36075,0,8.45897-1.69891,11.54155-4.78326l14.74852-14.75623c6.35829-6.36422,6.35829-16.71825-.00239-23.08128l-9.07467-9.07881c-2.44082-2.44022-3.06717-7.47412-1.36826-10.99044,1.59579-3.30004,3.02095-6.71443,4.23926-10.14484,1.31137-3.69707,5.33554-6.81992,8.78786-6.81992h12.75749c8.99998,0,16.32005-7.32182,16.32005-16.31945v-20.85263c-.0059-9.00355-7.32773-16.32419-16.32475-16.32419Zm-69.13127,26.74576c0,26.37067-21.45527,47.82534-47.82594,47.82534s-47.82474-21.45467-47.82474-47.82534,21.45527-47.82474,47.82474-47.82474,47.82594,21.4529,47.82594,47.82474Z"/><path d="M1109.06827,353.72657h-21.53101c-5.82599,0-12.61902-5.272-14.83398-11.51501-2.05298-5.78601-4.46503-11.54501-7.15997-17.121-2.87097-5.92999-1.81403-14.418,2.30499-18.53699l15.32599-15.328c10.73798-10.737,10.73798-28.20999,0-38.948l-24.87701-24.877c-5.203-5.202-12.117-8.06599-19.47501-8.06599-7.35501,0-14.271,2.864-19.47299,8.06599l-15.328,15.328c-2.461,2.46001-6.55899,3.929-10.957,3.929-2.754,0-5.375-.563-7.57401-1.62801-5.578-2.69901-11.34601-5.11301-17.14499-7.17599-6.23999-2.215-11.51199-9.008-11.51199-14.832v-21.533c0-15.18401-12.354-27.54001-27.54102-27.54001h-35.189c-15.18799,0-27.54099,12.356-27.54099,27.54001v21.533c0,5.826-5.271,12.62-11.51199,14.832-5.79099,2.05701-11.55701,4.465-17.129,7.158-2.16299,1.04601-4.84698,1.62199-7.55801,1.62199-4.41599,0-8.52499-1.472-10.992-3.938l-15.30301-15.297c-5.202-5.202-12.118-8.06599-19.47701-8.06599-7.356,0-14.272,2.864-19.474,8.063l-24.90199,24.88699c-5.205,5.19901-8.069,12.114-8.07201,19.47101,0,7.356,2.864,14.272,8.06599,19.474l15.328,15.328c4.12199,4.12201,5.181,12.616,2.311,18.54999-2.69,5.56601-5.09801,11.32199-7.151,17.11099-2.215,6.23901-9.005,11.51199-14.832,11.51199h-21.53c-15.187,0-27.54001,12.35599-27.54001,27.54001v35.19c0,15.18399,12.353,27.54001,27.54001,27.54001h21.53c5.827,0,12.62,5.26901,14.83501,11.509,2.05,5.77301,4.45799,11.53201,7.157,17.11099,2.868,5.92999,1.806,14.42499-2.319,18.54999l-15.328,15.327c-10.737,10.737-10.737,28.20999,0,38.94702l24.912,24.91498c5.202,5.20203,12.118,8.06598,19.474,8.06598s14.272-2.86401,19.47401-8.06598l15.328-15.32703c2.466-2.46698,6.573-3.93799,10.98499-3.93799,2.75101,0,5.36401,.56,7.55801,1.62201,5.57599,2.69501,11.33301,5.104,17.11499,7.15698,6.23801,2.21503,11.51199,9.008,11.51199,14.83502v21.53302c0,15.18402,12.354,27.539,27.539,27.539h35.19101c15.186,0,27.539-12.35498,27.539-27.539v-21.53302c0-5.82703,5.27301-12.62,11.51199-14.83197,5.793-2.05701,11.55899-4.46503,17.13101-7.15698,2.16199-1.047,4.84601-1.62201,7.55701-1.62201,4.41599,0,8.52301,1.47198,10.98999,3.93799l15.32599,15.32703c5.203,5.20203,12.11499,8.06598,19.47101,8.06598,7.35901,0,14.27499-2.867,19.47702-8.07202l24.88898-24.90198c10.72998-10.73999,10.72998-28.21301-.00403-38.95099l-15.31403-15.32101c-4.11902-4.11801-5.17603-12.61301-2.30902-18.547,2.69299-5.569,5.09802-11.33099,7.15399-17.12,2.21301-6.23901,9.00403-11.509,14.83002-11.509h21.52899c15.18799,0,27.54102-12.35599,27.54102-27.54001v-35.19c-.00995-15.194-12.36597-27.548-27.54895-27.548Zm-116.66299,45.13501c0,44.50201-36.207,80.70801-80.70901,80.70801s-80.707-36.20599-80.707-80.70801,36.207-80.707,80.707-80.707,80.70901,36.203,80.70901,80.707Z"/></g><g id="d"><path d="M862.90939,340.8199h54.79857c14.05468,0,24.77014,3.07758,32.14635,9.23273,7.37622,6.15515,11.06433,14.31634,11.06433,24.48356,0,13.80549-6.32959,23.39955-18.98878,28.7822,6.9775,.59807,11.83684,3.66319,14.578,9.19535,1.24598,2.49197,2.16801,5.69414,2.76608,9.60653s.97187,7.45098,1.12138,10.61577,.66037,6.27975,1.53256,9.34487,2.18047,5.24559,3.92485,6.54141h-35.58527c-1.54502-1.04663-2.7287-2.86576-3.55105-5.4574s-1.32074-5.25805-1.49518-7.99921-.56069-5.75644-1.15876-9.04583-1.42042-5.90596-2.46705-7.84969c-1.1463-2.04341-2.6664-3.41399-4.5603-4.11174s-4.41078-1.04663-7.55066-1.04663h-11.06433v35.51051h-35.51076v-107.80242Zm46.7246,47.77098c5.18329,0,9.10813-.90957,11.77454-2.7287s3.9996-4.3734,3.9996-7.66279c0-6.92766-5.25805-10.3915-15.77414-10.3915h-11.21384v20.78299h11.21384Z"/><path class="f" d="M995.28125,403.14753c1.91797-4.66016,4.61621-8.72949,8.09473-12.20801s7.85938-6.22168,13.14453-8.22754c5.28418-2.00781,11.11523-3.01074,17.49219-3.01074,8.02734,0,15.24121,1.72852,21.64062,5.18457s11.33887,8.09375,14.81738,13.91406c3.47852,5.81934,5.21777,12.23047,5.21777,19.23242,0,7.00098-1.72852,13.41211-5.18457,19.23145-3.45605,5.82031-8.38379,10.46973-14.7832,13.94824s-13.63574,5.2168-21.70801,5.2168c-6.28711,0-12.0625-1.01367-17.3252-3.04297s-9.65527-4.7832-13.17871-8.26172c-3.52246-3.47852-6.25391-7.54785-8.19434-12.20801-1.93945-4.66016-2.90918-9.62207-2.90918-14.88379,0-5.2627,.95801-10.22461,2.87598-14.88477Zm30.87207,25.78809c2.0293,2.98828,4.64844,4.48145,7.85938,4.48145s5.84277-1.49316,7.89453-4.48145c2.05078-2.98828,3.07617-6.62207,3.07617-10.90332s-1.02539-7.90527-3.07617-10.87109c-2.05176-2.96582-4.68359-4.44824-7.89453-4.44824s-5.83008,1.48242-7.85938,4.44824-3.04395,6.58984-3.04395,10.87109,1.01465,7.91504,3.04395,10.90332Z"/><path class="e" d="M1085.13006,354.44807h30.7041v37.12646c2.14062-4.05859,5.10645-7.23535,8.89746-9.53223s8.09473-3.44531,12.91113-3.44531c5.79688,0,11.05957,1.72852,15.78711,5.18457,4.72656,3.45605,8.40625,8.10547,11.03711,13.94727s3.94727,12.24219,3.94727,19.19922-1.31641,13.36719-3.94727,19.23145-6.31055,10.52539-11.03711,13.98145c-4.72754,3.45605-9.99023,5.18359-15.78711,5.18359-10.30273,0-17.57129-3.92383-21.80859-11.77344v9.56641h-30.7041v-98.66943Zm33.74805,73.3833c2.0293,2.98828,4.67188,4.48145,7.92676,4.48145,3.25586,0,5.89844-1.49316,7.92773-4.48145s3.04297-6.62207,3.04297-10.90332-1.01367-7.90527-3.04297-10.87109-4.67188-4.44824-7.92773-4.44824c-3.25488,0-5.89746,1.48242-7.92676,4.44824s-3.04395,6.58984-3.04395,10.87109,1.01465,7.91504,3.04395,10.90332Z"/><path d="M1176.77557,402.04328c1.91797-4.66016,4.61523-8.72949,8.09375-12.20801s7.86035-6.22168,13.14551-8.22754c5.28418-2.00781,11.11523-3.01074,17.49316-3.01074,8.02734,0,15.24023,1.72852,21.63965,5.18457s11.33887,8.09375,14.81738,13.91406c3.47852,5.81934,5.21777,12.23047,5.21777,19.23242,0,7.00098-1.72852,13.41211-5.18457,19.23145-3.45605,5.82031-8.38379,10.46973-14.7832,13.94824s-13.63574,5.2168-21.70703,5.2168c-6.28906,0-12.06348-1.01367-17.32617-3.04297s-9.65527-4.7832-13.17773-8.26172c-3.52344-3.47852-6.25488-7.54785-8.19531-12.20801-1.93945-4.66016-2.91016-9.62207-2.91016-14.88379,0-5.2627,.95898-10.22461,2.87695-14.88477Zm30.87207,25.78809c2.0293,2.98828,4.64941,4.48145,7.86035,4.48145s5.8418-1.49316,7.89258-4.48145c2.05176-2.98828,3.07812-6.62207,3.07812-10.90332s-1.02637-7.90527-3.07812-10.87109c-2.05078-2.96582-4.68164-4.44824-7.89258-4.44824s-5.83105,1.48242-7.86035,4.44824-3.04395,6.58984-3.04395,10.87109,1.01465,7.91504,3.04395,10.90332Z"/><path d="M1263.67108,354.44807h30.7041v98.66943h-30.7041v-98.66943Z"/><path d="M1309.19256,356.05353c3.27734-2.49707,7.48047-3.74609,12.60938-3.74609s9.33203,1.24902,12.60938,3.74609c3.27832,2.49805,4.91699,5.61914,4.91699,9.36523s-1.65039,6.87988-4.9502,9.39893c-3.2998,2.51953-7.49219,3.7793-12.57617,3.7793s-9.27637-1.25977-12.57617-3.7793c-3.2998-2.51904-4.9502-5.65283-4.9502-9.39893s1.63867-6.86719,4.91699-9.36523Zm-2.77637,24.75146c4.10254,2.89844,9.23145,4.34766,15.38574,4.34766,6.10938,0,11.21582-1.44922,15.31934-4.34766v72.3125h-30.70508v-72.3125Z"/><path d="M1349.16229,380.805h30.70508v11.50586c1.96191-4.37109,4.88281-7.74902,8.7627-10.13477s8.09473-3.5791,12.64355-3.5791c4.81641,0,8.99707,1.21484,12.54199,3.64551,3.5459,2.43066,6.03223,5.78711,7.45898,10.06836,2.18555-4.10352,5.34082-7.41504,9.46582-9.93457s8.35059-3.7793,12.67578-3.7793c8.42969,0,14.92871,2.58691,19.5,7.75977s6.85742,12.82129,6.85742,22.94434v43.81641h-30.70508v-38.33008c0-5.08398-.58008-8.55176-1.73926-10.40234s-2.83203-2.77637-5.0166-2.77637c-2.00781,0-3.75781,1.15918-5.25195,3.47852s-2.24023,6.26562-2.24023,11.84082v36.18945h-30.70508v-38.33008c0-5.08398-.58008-8.55176-1.73926-10.40234s-2.80957-2.77637-4.9502-2.77637c-.8916,0-1.75,.23438-2.5752,.70215-.8252,.46875-1.62793,1.23828-2.4082,2.30859s-1.40527,2.65332-1.87305,4.74902c-.46875,2.0957-.70215,4.61621-.70215,7.55957v36.18945h-30.70508v-72.3125Z"/><path d="M1479.60663,380.805h30.7041v10.76953c2.14062-4.05859,5.10645-7.23535,8.89746-9.53223s8.09473-3.44531,12.91113-3.44531c5.79688,0,11.05957,1.72852,15.78711,5.18457,4.72656,3.45605,8.40625,8.10547,11.03711,13.94727s3.94727,12.24219,3.94727,19.19922-1.31641,13.36719-3.94727,19.23145-6.31055,10.52539-11.03711,13.98145c-4.72754,3.45605-9.99023,5.18359-15.78711,5.18359-10.30273,0-17.57129-3.92383-21.80859-11.77344v40.27148h-30.7041v-103.01758Zm33.74805,47.02637c2.0293,2.98828,4.67188,4.48145,7.92676,4.48145,3.25586,0,5.89844-1.49316,7.92773-4.48145s3.04297-6.62207,3.04297-10.90332-1.01367-7.90527-3.04297-10.87109-4.67188-4.44824-7.92773-4.44824c-3.25488,0-5.89746,1.48242-7.92676,4.44824s-3.04395,6.58984-3.04395,10.87109,1.01465,7.91504,3.04395,10.90332Z"/><path d="M1573.35956,356.05353c3.27734-2.49707,7.48047-3.74609,12.60938-3.74609s9.33203,1.24902,12.60938,3.74609c3.27832,2.49805,4.91699,5.61914,4.91699,9.36523s-1.65039,6.87988-4.9502,9.39893c-3.2998,2.51953-7.49219,3.7793-12.57617,3.7793s-9.27637-1.25977-12.57617-3.7793c-3.2998-2.51904-4.9502-5.65283-4.9502-9.39893s1.63867-6.86719,4.91699-9.36523Zm-2.77637,24.75146c4.10254,2.89844,9.23145,4.34766,15.38574,4.34766,6.10938,0,11.21582-1.44922,15.31836-4.34766v72.3125h-30.7041v-72.3125Z"/><path d="M1610.75311,423.71711c1.18164-2.6084,2.82031-4.71582,4.91699-6.32129,2.0957-1.60547,4.59277-2.94336,7.49219-4.01367,2.89844-1.07031,6.05371-1.78418,9.46484-2.14062,3.41211-.35645,7.0127-.58008,10.80371-.66895,.8916-.04492,1.80566-.06641,2.74316-.06641,2.89844,0,5.8418,.13281,8.83008,.40039,0-4.45898-.52441-7.66992-1.57227-9.63281-1.04785-1.96191-3.08887-2.94336-6.12109-2.94336-2.63086,0-4.66016,.92578-6.08789,2.77637-1.42676,1.85059-2.31836,3.84668-2.67578,5.9873l-27.35938-6.02051c5.70801-14.98438,18.39648-22.47656,38.0625-22.47656,11.72949,0,20.73828,2.69824,27.02539,8.09473,6.28906,5.39551,9.43262,14.02539,9.43262,25.8877v15.85449c0,2.89844,.71387,4.74902,2.14062,5.55176,.84766,.49023,1.73926,.75781,2.67578,.80273,.58008,0,1.15918-.11133,1.73926-.33496v17.59375c-4.6377,2.18555-9.74414,3.27734-15.31836,3.27734-9.58887,0-15.80957-4.01367-18.66406-12.04102-2.00684,3.74609-4.93945,6.68945-8.79688,8.83008s-8.32812,3.21094-13.41211,3.21094c-8.42871,0-15.05078-2.17383-19.86719-6.52148-4.81641-4.34863-7.22461-9.71094-7.22461-16.08789,0-3.38965,.59082-6.38867,1.77246-8.99805Zm29.60059,12.81055c1.07031,1.2041,2.63086,1.80664,4.68262,1.80664h.80273c2.76465-.17871,4.96094-1.67285,6.58887-4.48242s2.48633-6.24316,2.57617-10.30176c-1.65039-.22266-3.21094-.33496-4.68359-.33496-3.07617,.04492-5.57422,.60254-7.49219,1.67285-2.85352,1.60547-4.28125,3.94629-4.28125,7.02441-.04395,1.73828,.55762,3.27734,1.80664,4.61523Z"/><path d="M1698.35077,397.72883c2.63086-5.8418,6.32129-10.49121,11.07129-13.94727,4.74902-3.45605,10.02246-5.18457,15.82031-5.18457,4.81641,0,9.1084,1.14844,12.87695,3.44531s6.72266,5.47363,8.86328,9.53223v-37.12646h30.70508v98.66943h-30.70508v-9.56641c-4.23633,7.84961-11.4834,11.77344-21.74023,11.77344-5.79785,0-11.07129-1.72754-15.82031-5.18359-4.75-3.45605-8.44043-8.11719-11.07129-13.98145s-3.94629-12.27441-3.94629-19.23145,1.31543-13.35742,3.94629-19.19922Zm29.76855,30.13574c2.00586,2.96582,4.6377,4.44824,7.89258,4.44824,3.25586,0,5.89844-1.49316,7.92773-4.48145s3.04297-6.62207,3.04297-10.90332-1.01367-7.90527-3.04297-10.87109-4.67188-4.44824-7.92773-4.44824c-3.25488,0-5.88672,1.47168-7.89258,4.41504-2.00781,2.94336-3.01074,6.57812-3.01074,10.9043,0,4.3252,1.00293,7.9707,3.01074,10.93652Z"/><path d="M1792.50506,356.05353c3.27734-2.49707,7.48047-3.74609,12.60938-3.74609s9.33203,1.24902,12.60938,3.74609c3.27832,2.49805,4.91699,5.61914,4.91699,9.36523s-1.65039,6.87988-4.9502,9.39893c-3.2998,2.51953-7.49219,3.7793-12.57617,3.7793s-9.27637-1.25977-12.57617-3.7793c-3.2998-2.51904-4.9502-5.65283-4.9502-9.39893s1.63867-6.86719,4.91699-9.36523Zm-2.77637,24.75146c4.10254,2.89844,9.23145,4.34766,15.38574,4.34766,6.10938,0,11.21582-1.44922,15.31934-4.34766v72.3125h-30.70508v-72.3125Z"/></g></svg>