<svg xmlns="http://www.w3.org/2000/svg" viewBox="0 0 592 592"><defs><style>.cls-1{fill:#f15a24;}.cls-2{fill:none;stroke-width:16px;}.cls-2,.cls-5{stroke:#fff;stroke-miterlimit:10;}.cls-3,.cls-5{fill:#fff;}.cls-4{fill:#253c94;}</style></defs><g id="Layer_2" data-name="Layer 2"><g id="Layer_6" data-name="Layer 6"><circle class="cls-1" cx="296" cy="296" r="296"/><path class="cls-2" d="M346.87,159.15h38l47,47h0l48-48-69-70H179.28a3.41,3.41,0,0,0-2.41,1h0l-52,52h0v133l55,55h203l16,16v73l-1,1-16,12h-26l-34,35h-128l-37-35"/><polyline class="cls-2" points="374.87 467.15 398.87 467.15 432.87 432.15 432.87 432.15 434.87 382.15 468.87 348.15 468.87 347.15 468.87 317.15 411.87 261.15 411.87 261.15 206.87 261.15 206.37 260.65 193.87 248.15 193.87 173.15 208.87 159.15 208.87 159.15 298 159 298 159 331.87 125.15 331.87 125.15 401.87 125.15 401.87 125.15 435.87 159.15"/><polyline class="cls-2" points="433.87 332.15 397.87 296.15 396.87 296.15 193.87 295.15 193.87 295.15 157.87 261.15 157.87 261.15 157.87 158.15 157.87 158.15 191.37 124.65 191.87 124.15 279.87 124.15"/><polyline class="cls-2" points="473.87 399.15 473.87 448.15 471.87 450.15 418.87 503.15 418.87 503.15 184.87 503.15 114.87 435.15 114.87 435.15 163.37 386.65 163.87 387.15 212.37 435.65 212.87 436.15 310.87 436.15"/><rect class="cls-1" x="242.28" y="238.5" width="111.8" height="111.8" rx="12.98"/><path class="cls-3" d="M347.88,231.73H248.49a13,13,0,0,0-13,13v99.39a13,13,0,0,0,13,13h99.39a13,13,0,0,0,13-13V244.7A13,13,0,0,0,347.88,231.73Zm6.2,105.59a13,13,0,0,1-13,13H255.26a13,13,0,0,1-13-13V251.48a13,13,0,0,1,13-13H341.1a13,13,0,0,1,13,13Z"/><path class="cls-4" d="M244,244.86a11.08,11.08,0,0,1,.66-1A11.08,11.08,0,0,0,244,244.86Z"/><path class="cls-4" d="M253.48,238.58c.31,0,.63-.06,1-.07C254.12,238.52,253.79,238.54,253.48,238.58Z"/><path class="cls-4" d="M341.92,238.51c.33,0,.65,0,1,.07C342.57,238.54,342.25,238.52,341.92,238.51Z"/><path class="cls-4" d="M351.74,243.84c.23.33.45.67.65,1C352.19,244.51,352,244.17,351.74,243.84Z"/><path class="cls-5" d="M232.54,315.76a.18.18,0,0,1,.17.17v8.38H214.93v8.55h17.78v14.48a12.57,12.57,0,0,0,12.53,12.53h14.48v17.78h8.55V359.87h8.54l3.06.28h3l2.49-.28h8.54v17.78h8.55V359.87H311l1.87.28h6l.68-.28h8.55v17.78h8.55V359.87h14.47a12.57,12.57,0,0,0,12.53-12.53V332.86h17.78v-8.55H363.65v-8.55l.22.39v-9l-.22.07v-8.55h17.78v-8.54H363.65v-8.55l.22-.43v-8l-.22-.12v-8.55h17.78v-8.55H363.65V241.46a12.57,12.57,0,0,0-12.53-12.54H336.65V211.15H328.1v17.77h-8.55l-1.68.23h-5l-1.87-.23h-8.55V211.15H293.9v17.77h-8.54l-.49.23h-8l-.06-.23h-8.54V211.15h-8.55v17.77H245.24a12.57,12.57,0,0,0-12.53,12.53v14.48H214.93v8.55h17.78v8.38a.18.18,0,0,1-.17.17m0,8.55a.17.17,0,0,1,.17.17V290a.18.18,0,0,1-.17.17H219.2a4.28,4.28,0,0,0-4.27,4.27h0a4.28,4.28,0,0,0,4.27,4.27h13.34a.17.17,0,0,1,.17.17v8.21a.18.18,0,0,1-.17.17m126.33,33.11a14.8,14.8,0,0,1-14.76,14.75H252.25a14.79,14.79,0,0,1-14.75-14.75V248.46a14.79,14.79,0,0,1,14.75-14.75h91.86a14.8,14.8,0,0,1,14.76,14.75Z"/><rect class="cls-3" x="271" y="112.83" width="24" height="23.17"/><rect class="cls-3" x="424.89" y="147.86" width="24" height="23.17"/><rect class="cls-3" x="341.5" y="147.41" width="24" height="23.17"/><rect class="cls-3" x="150.71" y="421.99" width="24" height="23.17"/><rect class="cls-3" x="365.71" y="456.12" width="24" height="23.17"/><rect class="cls-3" x="462" y="388.41" width="24" height="23.17"/><rect class="cls-3" x="421.67" y="320.75" width="24" height="23.17"/></g><g id="Layer_7" data-name="Layer 7"><path class="cls-3" d="M259.79,308.9a3.07,3.07,0,0,0-4.63-.07,3.19,3.19,0,0,0,.05,4.39c1.14,1.14,2.56,1,4.64-.05,4.63-2.39,7.24-2.37,10,.44a6.7,6.7,0,0,1-.06,9.89c-2.89,2.89-7,2.89-10.11-.11l2.37-2.37c1.78,1.73,4,1.89,5.57.31a3.6,3.6,0,0,0-.13-5.35c-1.19-1.19-2.46-1.4-4.78-.26-5.37,2.65-7.57,2.21-9.87-.09a6.32,6.32,0,0,1,.11-9c2.68-2.67,6.29-2.92,9.17-.13Z"/><path class="cls-3" d="M297.36,295.35l-12.51-12.52-.05.05,3.58,21.46-1.76,1.75L274.1,293.57l0,.05,3.57,21.46-3,3L270.31,290l2.45-2.46L284,298.75l.05-.05-3-19.49,2.46-2.45L299.73,293Z"/><path class="cls-3" d="M313.71,279l-8-1.51L300.14,283l4.78,4.78-2.37,2.37-16.22-16.22,2.92-2.92,27.36,5.09Zm-21.9-4.41,0,.05,6.2,6.2,4-4Z"/><path class="cls-3" d="M316.47,276.24,300.25,260l2.37-2.37,14.05,14.05,5.64-5.63,2.17,2.17Z"/><path class="cls-3" d="M325.77,267l-16.23-16.23,2.37-2.37,14,14.06,5.64-5.64,2.17,2.17Z"/><path class="cls-3" d="M297.48,332l-15-15-3.32,3.31-2.31-2.31L286,308.9l2.31,2.31L285,314.53l15,15Z"/><path class="cls-3" d="M312.55,316.93l-5.09-5.09-5.88,5.88,1.61,8.57-3.08,3.08-5.41-29.13,3.1-3.1,17.27,17.27Zm-14-14-.05.05,2.36,10.85,4.29-4.3Z"/><path class="cls-3" d="M318.2,311.29,300.93,294l2.52-2.52,15,15,6-6,2.31,2.31Z"/><path class="cls-3" d="M328.35,301.14l-17.27-17.27,2.52-2.52,17.27,17.27Zm9.12-9.13-15.26-2.15-2-15.12,3.11-3.1L325.13,287l15.45,2Z"/></g></g></svg>